<?xml version="1.0" encoding="utf-8"?><svg xmlns="http://www.w3.org/2000/svg" xmlns:xlink="http://www.w3.org/1999/xlink"><symbol viewBox="0 0 256 512" id="angle-down" xmlns="http://www.w3.org/2000/svg"><path d="M119.5 326.9L3.5 209.1c-4.7-4.7-4.7-12.3 0-17l7.1-7.1c4.7-4.7 12.3-4.7 17 0L128 287.3l100.4-102.2c4.7-4.7 12.3-4.7 17 0l7.1 7.1c4.7 4.7 4.7 12.3 0 17L136.5 327c-4.7 4.6-12.3 4.6-17-.1z"/></symbol><symbol id="angle-left" viewBox="0 0 13.2 21.7" xml:space="preserve" xmlns="http://www.w3.org/2000/svg"><style>.abst0{fill-rule:evenodd;clip-rule:evenodd}</style><path class="abst0" d="M13.2 19.4L6 12.3l-1.4-1.5L6 9.4l7.2-7.1L10.8 0 0 10.8l2.3 2.3 1.4 1.5 7.1 7.1z"/></symbol><symbol id="angle-right" viewBox="0 0 13.2 21.7" xml:space="preserve" xmlns="http://www.w3.org/2000/svg"><style>.acst0{fill-rule:evenodd;clip-rule:evenodd}</style><path class="acst0" d="M0 19.4l7.1-7.1 1.4-1.5-1.4-1.4L0 2.3 2.3 0l10.9 10.8-2.3 2.3-1.5 1.5-7.1 7.1z"/></symbol><symbol fill="none" viewBox="0 0 20 37" id="arrow-down" xmlns="http://www.w3.org/2000/svg"><path fill-rule="evenodd" clip-rule="evenodd" d="M9 0h2v32.385L18.385 25l1.414 1.415-9.9 9.899L8.485 34.9 0 26.414 1.414 25 9 32.586V0z" fill="#000"/></symbol><symbol viewBox="0 0 16 17" id="arrow-left" xmlns="http://www.w3.org/2000/svg"><path d="M8 16.4L9.4 15 3.8 9.4H16v-2H3.8l5.6-5.6L8 .4l-8 8 8 8z"/></symbol><symbol viewBox="0 0 16 17" id="arrow-right" xmlns="http://www.w3.org/2000/svg"><path d="M8 .4L6.6 1.8l5.6 5.6H0v2h12.2L6.6 15 8 16.4l8-8-8-8z"/></symbol><symbol fill="none" viewBox="0 0 16 16" id="arrow-up" xmlns="http://www.w3.org/2000/svg"><path d="M0 8l1.41 1.41L7 3.83V16h2V3.83l5.58 5.59L16 8 8 0 0 8z" fill="#000"/></symbol><symbol viewBox="0 0 24 22" id="bubble" xmlns="http://www.w3.org/2000/svg"><path d="M3.8 16.2l-.5 4.7c0 .1 0 .2.1.3.1.1.1.2.2.2s.2.1.3.1c.1 0 .3-.1.4-.2L7.8 18c1.4.4 2.8.6 4.2.6 6.6 0 12-4.1 12-9s-5.4-9-12-9-12 4.1-12 9c0 2.5 1.4 4.9 3.8 6.6zM12 1.7c6 0 10.9 3.5 10.9 7.8S18 17.3 12 17.3c-1.4 0-2.8-.2-4.2-.6h-.3c-.1 0-.2.1-.3.1l-2.6 2.5.4-3.4c0-.1 0-.2-.1-.3 0-.1-.1-.2-.2-.2-2.3-1.5-3.6-3.6-3.6-5.8C1.1 5.2 6 1.7 12 1.7z"/><path d="M6.7 10.7c.5-.5.5-1.4 0-1.9s-1.3-.5-1.8 0-.5 1.4 0 1.9 1.3.5 1.8 0zM12 11.1c.7 0 1.3-.6 1.3-1.3 0-.7-.6-1.3-1.3-1.3s-1.3.5-1.3 1.3c0 .7.6 1.3 1.3 1.3zM19.1 10.7c.5-.5.5-1.4 0-1.9s-1.3-.5-1.8 0-.5 1.4 0 1.9 1.3.5 1.8 0z"/></symbol><symbol fill="none" viewBox="0 0 22 16" id="check" xmlns="http://www.w3.org/2000/svg"><path d="M6.687 12.657L1.672 7.642 0 9.313 6.687 16 21.015 1.672 19.343 0 6.687 12.657z" fill="#000"/></symbol><symbol fill="none" viewBox="0 0 24 24" id="clock" xmlns="http://www.w3.org/2000/svg"><path d="M20.532 20.428A11.96 11.96 0 0024 12a11.96 11.96 0 00-3.468-8.428c-.015-.019-.029-.04-.047-.057-.018-.018-.038-.032-.057-.047A11.96 11.96 0 0012 0a11.96 11.96 0 00-8.428 3.467c-.02.016-.04.03-.057.048-.018.018-.032.038-.047.057A11.96 11.96 0 000 12a11.96 11.96 0 003.468 8.428c.015.019.029.04.047.057.018.018.038.032.057.047A11.959 11.959 0 0012 24a11.96 11.96 0 008.428-3.468c.019-.015.04-.029.057-.047.018-.018.032-.038.047-.057zM18.56 17.69a.615.615 0 10-.87.87l1.473 1.473a10.724 10.724 0 01-6.548 2.717v-2.088a.615.615 0 10-1.23 0v2.088a10.725 10.725 0 01-6.548-2.717L6.31 18.56a.615.615 0 10-.87-.87l-1.473 1.473a10.725 10.725 0 01-2.718-6.548h2.089a.615.615 0 000-1.23H1.25a10.725 10.725 0 012.717-6.548L5.44 6.31a.614.614 0 00.87 0c.24-.24.24-.63 0-.87L4.837 3.967a10.727 10.727 0 016.548-2.718v2.089a.615.615 0 001.23 0V1.25a10.725 10.725 0 016.548 2.717L17.69 5.44a.615.615 0 10.87.87l1.473-1.473a10.726 10.726 0 012.717 6.548h-2.088a.615.615 0 100 1.23h2.088a10.725 10.725 0 01-2.717 6.548L18.56 17.69z" fill="#000"/><path d="M12 5.258a.615.615 0 00-.615.615v5.752l-4.186 2.179a.615.615 0 10.569 1.092l4.516-2.352c.01-.005.018-.012.027-.017a.636.636 0 00.18-.161.534.534 0 00.085-.156.602.602 0 00.037-.18l.002-.031V5.872A.615.615 0 0012 5.258z" fill="#000"/></symbol><symbol fill="none" viewBox="0 0 24 24" id="closed" xmlns="http://www.w3.org/2000/svg"><path d="M21.297 1.844h-3.512V.834A.841.841 0 0016.952 0a.841.841 0 00-.834.834v1.01h-8.21V.834A.841.841 0 007.073 0a.841.841 0 00-.834.834v1.01H2.703A2.706 2.706 0 000 4.547v15.815a2.706 2.706 0 002.703 2.703h18.594A2.706 2.706 0 0024 20.362V4.522c0-1.465-1.213-2.678-2.703-2.678zm1.036 18.493a1.02 1.02 0 01-1.036 1.01H2.703c-.556 0-1.036-.454-1.036-1.01V9.625h20.64v10.712h.026zm0-12.404H1.667v-3.41c0-.557.455-1.011 1.036-1.011h3.512v1.01c0 .455.379.834.833.834a.841.841 0 00.834-.834v-1.01h8.21v1.01c0 .455.38.834.834.834a.841.841 0 00.834-.834v-1.01h3.512c.555 0 1.035.454 1.035 1.01v3.41h.026z" fill="#000"/><path d="M8.867 18.646a.87.87 0 00.581.253c.203 0 .43-.076.582-.253l1.945-1.945 1.945 1.945a.87.87 0 00.581.253c.202 0 .43-.076.581-.253a.839.839 0 000-1.187l-1.945-1.945 1.945-1.946a.838.838 0 10-1.187-1.187L12 14.301l-1.945-1.945a.839.839 0 10-1.188 1.187l1.946 1.945-1.946 1.946c-.328.353-.328.884 0 1.212z" fill="#000"/></symbol><symbol id="compare" viewBox="0 0 21 15" xml:space="preserve" xmlns="http://www.w3.org/2000/svg"><style>.alst0{fill:#323232}</style><path class="alst0" d="M7.5 9.5h-7v2h7v3l4-4-4-4v3zm6-1v-3h7v-2h-7v-3l-4 4 4 4z"/></symbol><symbol fill="none" viewBox="0 0 24 12" id="compare-arrows" xmlns="http://www.w3.org/2000/svg"><path d="M0 5.886L7.063.788v10.195L0 5.886zM23.834 5.886l-7.063 5.097V.789l7.063 5.097z" fill="#000"/></symbol><symbol viewBox="0 0 24 24" id="download" xmlns="http://www.w3.org/2000/svg"><path d="M12 0c-.5 0-.8.4-.8.9V16l-5.4-5.4c-.2-.2-.4-.3-.6-.3-.5 0-.9.4-.9.9 0 .2.1.5.3.6l6.9 6.9h.7l6.8-6.9c.2-.2.3-.4.3-.6 0-.5-.4-.9-.9-.9-.2 0-.4.1-.6.3L12.4 16V.9c.5-.5.1-.9-.4-.9zM.9 22.3c-.5 0-.9.4-.9.9 0 .4.4.8.9.8h22.3c.5 0 .9-.4.9-.9s-.4-.9-.9-.9H.9z"/></symbol><symbol id="empty-tank" viewBox="0 0 49 49" xml:space="preserve" xmlns="http://www.w3.org/2000/svg"><style/><defs><path id="aoSVGID_1_" d="M0 0h48.7v48.7H0z"/></defs><clipPath id="aoSVGID_00000133489799526527570670000012034147194988154786_"><use xlink:href="#aoSVGID_1_" overflow="visible"/></clipPath><g clip-path="url(#aoSVGID_00000133489799526527570670000012034147194988154786_)"><path d="M12.3 48.7h-7l-2-1.3-1.6-18.1L0 25.6l.1-3 1.6-3.1L3.5 1.2 5.2 0h7.1v1.6H5.7l-.7.5-1.8 18-1.5 3.1v2.2L3.3 29l1.6 17.5.9.6h6.5v1.6zM43.4 48.7h-7v-1.6h6.5l.9-.6 1.7-17.7 1.6-3.3v-2.2L45.5 20 43.7 2.1l-.7-.5h-6.6V0h7.1l1.7 1.2L47 19.6l1.6 3.5V26L47 29.3l-1.7 18.1-1.9 1.3z"/></g></symbol><symbol viewBox="0 0 512 384" id="envelope" xmlns="http://www.w3.org/2000/svg"><path d="M502.3 126.8a6 6 0 019.7 4.7V336a48 48 0 01-48 48H48a48 48 0 01-48-48V131.6a6 6 0 019.7-4.7c22.4 17.4 52.1 39.5 154.1 113.6 21.1 15.4 56.7 47.8 92.2 47.6 35.7.3 72-32.8 92.3-47.6 102-74.1 131.6-96.3 154-113.7zM256 256c23.2.4 56.6-29.2 73.4-41.4 132.7-96.3 142.8-104.7 173.4-128.7A23.93 23.93 0 00512 67V48a48 48 0 00-48-48H48A48 48 0 000 48v19a24.08 24.08 0 009.2 18.9c30.6 23.9 40.7 32.4 173.4 128.7 16.8 12.2 50.2 41.8 73.4 41.4z"/></symbol><symbol viewBox="0 0 11.09 21.13" id="estimate" xmlns="http://www.w3.org/2000/svg"><path d="M11.09 20.81l-.09-4.2a.27.27 0 000-.12L4 1.59a.31.31 0 00-.42-.15l-.41.19L2.5.18A.32.32 0 002.08 0L.35.84a.31.31 0 00-.15.42l.68 1.45-.41.19a.31.31 0 00-.15.42L1 4.79a2.2 2.2 0 00-.8 2.8l1 2.08.57-.27-1-2.07A1.59 1.59 0 01.73 6.1a1.63 1.63 0 01.55-.74l6 12.85a.31.31 0 00.08.11l3.19 2.73a.21.21 0 00.1.06.29.29 0 00.24 0 .32.32 0 00.2-.3zM.9 1.28L2.07.73l.54 1.16-1.16.55zm.53 1.86l1.73-.81.41-.19L9.8 15.43l-2.55 1.19L1 3.33zm6.42 14.75l-.33-.7L10.07 16l.32.69.06 3.43z"/><path d="M3.62 3.46l-.57.27L4 5.81l.57-.27z"/></symbol><symbol fill="none" viewBox="0 0 53 56" id="euro" xmlns="http://www.w3.org/2000/svg"><g clip-path="url(#arclip0)"><path d="M26.786 51.2c6.538 0 12.517-2.631 16.743-6.937 4.305-4.225 6.937-10.205 6.937-16.663 0-6.538-2.632-12.438-6.937-16.663C39.224 6.63 33.324 4 26.786 4c-6.538 0-12.518 2.631-16.743 6.937C5.657 15.162 3.026 21.062 3.026 27.6s2.631 12.438 6.937 16.663C14.268 48.49 20.248 51.2 26.786 51.2zm0-45.605c6.139 0 11.64 2.471 15.707 6.458 3.986 3.986 6.458 9.488 6.458 15.547 0 5.82-2.233 11.082-5.98 14.99l-7.176-7.097-.558.558a12.05 12.05 0 01-8.53 3.508c-3.35 0-6.3-1.355-8.532-3.508a12.57 12.57 0 01-3.03-4.943H25.59v-1.595H14.906c-.08-.637-.16-1.275-.16-1.913 0-.638.08-1.276.16-1.914H28.62v-1.594H15.225a10.976 10.976 0 013.03-4.943 12.05 12.05 0 018.53-3.509c1.994 0 3.908.479 5.582 1.356l.718-1.355c-1.914-.957-3.987-1.515-6.3-1.515-3.507 0-6.617 1.275-9.009 3.428l-6.06-6.06c3.908-3.667 9.17-5.9 15.07-5.9zM10.52 12.61l6.06 6.06c-1.356 1.514-2.393 3.428-2.95 5.5h-2.552v1.595h2.232c-.08.638-.159 1.276-.159 1.914 0 .638.08 1.275.16 1.913h-2.233v1.595h2.551c1.515 5.74 6.857 10.046 13.156 10.046 3.508 0 6.617-1.276 9.01-3.429l6.059 6.06c-3.987 3.667-9.249 5.9-15.07 5.9-6.138 0-11.64-2.472-15.706-6.458-3.986-3.987-6.458-9.488-6.458-15.548 0-5.98 2.232-11.241 5.9-15.148z" fill="#000"/></g><defs><clipPath id="arclip0"><path fill="#fff" transform="translate(3.026 4)" d="M0 0h47.439v47.2H0z"/></clipPath></defs></symbol><symbol fill="none" viewBox="0 0 42 42" id="expand" xmlns="http://www.w3.org/2000/svg"><circle cx="21" cy="21" r="20.5" fill="#fff" stroke="#000"/><path d="M24.69 19.048l5.95-5.95v5.2a.76.76 0 00.756.756.75.75 0 00.752-.752v-7.021a.75.75 0 00-.752-.752h-7.021a.75.75 0 100 1.503h5.2l-5.951 5.95a.756.756 0 000 1.066.755.755 0 001.065 0zM17.983 23.394l-5.951 5.951v-5.2a.76.76 0 00-.757-.756.75.75 0 00-.75.751v7.022a.75.75 0 00.75.75h7.022a.75.75 0 100-1.501h-5.2l5.951-5.951a.756.756 0 000-1.066.756.756 0 00-1.065 0z" fill="#323232"/></symbol><symbol viewBox="0 0 264 512" id="facebook" xmlns="http://www.w3.org/2000/svg"><path d="M215.8 85H264V3.6C255.7 2.5 227.1 0 193.8 0 124.3 0 76.7 42.4 76.7 120.3V192H0v91h76.7v229h94V283h73.6l11.7-91h-85.3v-62.7c0-26.3 7.3-44.3 45.1-44.3z"/></symbol><symbol viewBox="0 0 25 24" fill="none" id="lifebuoy" xmlns="http://www.w3.org/2000/svg"><path d="M16.88 4.33a9.024 9.024 0 011.652 1.306c.51.51.944 1.064 1.306 1.652M16.88 4.33l-3.448 4.138M16.88 4.33a9.014 9.014 0 00-9.424 0m12.382 2.958L15.7 10.736m4.138-3.448a9.014 9.014 0 010 9.424M15.7 10.736a3.736 3.736 0 00-.88-1.388 3.735 3.735 0 00-1.388-.88m2.268 2.268a3.765 3.765 0 010 2.528m-2.268-4.796a3.765 3.765 0 00-2.528 0m4.796 4.796c-.181.506-.475.982-.88 1.388a3.735 3.735 0 01-1.388.88m2.268-2.268l4.138 3.448m0 0a9.027 9.027 0 01-1.306 1.652c-.51.51-1.064.944-1.652 1.306m0 0l-3.448-4.138m3.448 4.138a9.014 9.014 0 01-9.424 0m5.976-4.138a3.765 3.765 0 01-2.528 0m0 0a3.735 3.735 0 01-1.388-.88 3.737 3.737 0 01-.88-1.388m2.268 2.268L7.456 19.67m0 0a9.024 9.024 0 01-1.652-1.306 9.027 9.027 0 01-1.306-1.652m0 0l4.138-3.448m-4.138 3.448a9.014 9.014 0 010-9.424m4.138 5.976a3.765 3.765 0 010-2.528m0 0c.181-.506.475-.982.88-1.388a3.736 3.736 0 011.388-.88m-2.268 2.268L4.498 7.288m6.406 1.18L7.456 4.33m0 0a9.024 9.024 0 00-1.652 1.306 9.025 9.025 0 00-1.306 1.652" stroke="#000" stroke-width="1.5" stroke-linecap="round" stroke-linejoin="round"/></symbol><symbol viewBox="0 0 448.1 448" id="linkedin" xmlns="http://www.w3.org/2000/svg"><path d="M100.3 448H7.4V148.9h92.9zM53.8 108.1C24.1 108.1 0 83.5 0 53.8a53.8 53.8 0 01107.6 0c0 29.7-24.1 54.3-53.8 54.3zM448 448h-92.7V302.4c0-34.7-.7-79.2-48.3-79.2-48.3 0-55.7 37.7-55.7 76.7V448h-92.8V148.9h89.1v40.8h1.3c12.4-23.5 42.7-48.3 87.9-48.3 94 0 111.3 61.9 111.3 142.3V448z"/></symbol><symbol viewBox="0 0 16 16" id="long-arrow-right" xmlns="http://www.w3.org/2000/svg"><path d="M8 0L6.59 1.41 12.17 7H0v2h12.17l-5.59 5.58L8 16l8-8z"/></symbol><symbol fill="none" viewBox="0 0 24 25" id="mail" xmlns="http://www.w3.org/2000/svg"><path d="M22 6.512c0-1.1-.9-2-2-2H4c-1.1 0-2 .9-2 2v12c0 1.1.9 2 2 2h16c1.1 0 2-.9 2-2v-12zm-2 0l-8 5-8-5h16zm0 12H4v-10l8 5 8-5v10z" fill="#323232"/></symbol><symbol fill="none" viewBox="0 0 86 86" id="ok" xmlns="http://www.w3.org/2000/svg"><path d="M19.594 33.172l-9.407-6.72a1.345 1.345 0 00-1.562 2.188l9.407 6.719a1.34 1.34 0 001.874-.313 1.344 1.344 0 00-.312-1.874zM18.032 47.281L8.625 54a1.344 1.344 0 001.563 2.187l9.406-6.718a1.344 1.344 0 00-1.563-2.188zM80.832 20.23c-.119-.105-2.961-2.523-6.234-2.06-1.872.267-3.454 1.377-4.703 3.302a1.457 1.457 0 00-.077.135l-3.767 7.607L67.99 6.2a1.344 1.344 0 00-.593-1.23c-.139-.094-3.428-2.247-6.56-.775-2.467 1.16-3.966 4.138-4.449 8.803l-.735 5.198C53.586 10.81 51.218 3.2 49.61.64c-.22-.351-.59-.58-1.003-.623-.118-.01-2.917-.268-4.923 1.802-1.607 1.66-2.192 4.23-1.738 7.643.005.038.012.076.02.113l3.506 15.879-14.337 1.167a1.344 1.344 0 00-1.034.632L22.5 39.533a1.346 1.346 0 00.512 1.894c.074.039.886.462 2.095.805-.671.158-1.365.377-2.081.657a1.344 1.344 0 00-.772 1.714l4.37 11.927c.07.187.178.356.32.496l6.876 6.758c.555 1.837 3.304 10.017 9.46 14.634.132.75.388 2.14.687 3.385l.092.4C44.509 84.205 45.23 86 49.074 86h12.637c4.344 0 4.583-3.641 4.775-6.568l2.06-28.126 12.642-29.532a1.343 1.343 0 00-.356-1.545zM65.987 50.454a1.337 1.337 0 00-.105.43l-2.078 28.371c-.231 3.526-.505 4.057-2.093 4.057H49.074c-2.01 0-2.077-.293-2.393-1.7 0 0-.838-4.156-.841-4.176a1.346 1.346 0 00-.555-.885c-6.35-4.453-8.951-13.74-8.977-13.834a1.35 1.35 0 00-.354-.605l-6.91-6.791-3.793-10.352c1.924-.542 3.537-.456 4.807.258 2.377 1.335 2.959 4.512 2.964 4.54.083.497.438.905.918 1.058l6.651 2.11a1.343 1.343 0 001.485-.48l4.846-6.522c.272-.365.34-.843.182-1.27l-2.851-7.675a1.346 1.346 0 00-1.844-.742c-3.523 1.7-6.794-.876-6.927-.983a1.343 1.343 0 00-2.11.572c-.735 1.973-1.845 3.257-3.296 3.813-1.567.6-3.29.292-4.447-.065l6.4-10.34 14.043-1.143 4.7 11.743a1.343 1.343 0 102.495-.999L48.418 26.73c.02-.152.02-.309-.015-.467l-3.8-17.211c-.32-2.477.022-4.324.993-5.344.658-.69 1.521-.917 2.102-.99 2.618 5.131 7.405 23.337 9.666 32.657a1.344 1.344 0 002.612-.634 557.096 557.096 0 00-2.572-10.104c.046-.107.084-.22.1-.341l1.553-10.971c.378-3.652 1.386-5.966 2.914-6.693 1.154-.549 2.486-.132 3.268.221l-2.967 35.192a1.344 1.344 0 002.678.225l.522-6.192a1.33 1.33 0 00.42-.487l6.299-12.719c.805-1.217 1.713-1.884 2.773-2.039 1.276-.187 2.544.403 3.327.88L65.987 50.455zm-35.675-8.06c.235-.064.47-.14.705-.229 1.78-.676 3.19-1.982 4.204-3.892 1.525.815 4.102 1.75 6.984.92l2.125 5.723-3.84 5.168-5.016-1.592c-.394-1.378-1.475-4.121-4.076-5.595a7.312 7.312 0 00-1.086-.504zM16.797 40.984c0-.742-.602-1.343-1.344-1.343H5.375a1.344 1.344 0 000 2.687h10.078c.742 0 1.344-.602 1.344-1.344z" fill="#000"/></symbol><symbol fill="none" viewBox="0 0 89 112" id="pdf" xmlns="http://www.w3.org/2000/svg"><path d="M88.5 21.69v89.81H.5V.5h66.237L88.5 21.69z" stroke="#000"/><path d="M30.44 35.8V47h1.824v-3.92h2.016c2.736 0 4.064-1.824 4.064-3.632 0-1.84-1.328-3.648-4.064-3.648h-3.84zm1.824 5.616v-3.904h2.016c1.552 0 2.256.976 2.256 1.936 0 .992-.704 1.968-2.256 1.968h-2.016zM44.602 47c3.36 0 5.632-2.304 5.632-5.712 0-3.248-2.304-5.488-5.632-5.488h-4.256V47h4.256zm-2.432-9.536h2.432c2.24 0 3.808 1.568 3.808 3.824 0 2.384-1.552 4.032-3.808 4.032H42.17v-7.856zm12.047 9.552v-4.592h4.688v-1.68h-4.688v-3.232h5.232V35.8h-7.056v11.216h1.824z" fill="#000"/><circle cx="45" cy="72" r="19" fill="#F4F4F4"/><path d="M53 67l-1.41-1.41L46 71.17V59h-2v12.17l-5.58-5.59L37 67l8 8 8-8z" fill="#000"/><path fill-rule="evenodd" clip-rule="evenodd" d="M36.5 79h17v2h-17v-2z" fill="#000"/></symbol><symbol fill="none" viewBox="0 0 24 25" id="phone" xmlns="http://www.w3.org/2000/svg"><path d="M20 21.512c-9.39 0-17-7.61-17-17 0-.55.45-1 1-1h3.49c.55 0 1 .45 1 1 0 1.24.2 2.45.57 3.57.04.1.05.21.05.31 0 .26-.1.51-.29.71l-2.2 2.2c1.45 2.83 3.76 5.15 6.59 6.59l2.2-2.2c.28-.28.67-.36 1.02-.25 1.12.37 2.32.57 3.57.57.55 0 1 .45 1 1v3.5c0 .55-.45 1-1 1zM6.98 8.112c-.24-.85-.39-1.72-.45-2.6H5.04c.09 1.32.35 2.59.75 3.8l1.19-1.2zM19 17.972c-.89-.06-1.76-.21-2.59-.45l-1.2 1.2c1.2.41 2.47.67 3.79.76v-1.51z" fill="#323232"/></symbol><symbol fill="none" viewBox="0 0 24 25" id="pin" xmlns="http://www.w3.org/2000/svg"><path d="M12 4.512c1.93 0 5 1.4 5 5.15 0 2.16-1.72 4.67-5 7.32-3.28-2.65-5-5.17-5-7.32 0-3.75 3.07-5.15 5-5.15zm0-2c-3.27 0-7 2.46-7 7.15 0 3.12 2.33 6.41 7 9.85 4.67-3.44 7-6.73 7-9.85 0-4.69-3.73-7.15-7-7.15z" fill="#323232"/><path d="M12 7.512c-1.1 0-2 .9-2 2s.9 2 2 2a2 2 0 000-4zm-7 13h14v2H5v-2z" fill="#323232"/></symbol><symbol fill="none" viewBox="0 0 45 65" id="play" xmlns="http://www.w3.org/2000/svg"><mask id="bca" fill="#fff"><path fill-rule="evenodd" clip-rule="evenodd" d="M12.474.198L.506 12.166l19.947 19.947L.507 52.059l11.968 11.968 31.914-31.914-11.968-11.968L12.474.198z"/></mask><path fill-rule="evenodd" clip-rule="evenodd" d="M12.474.198L.506 12.166l19.947 19.947L.507 52.059l11.968 11.968 31.914-31.914-11.968-11.968L12.474.198z" fill="#0064E6"/><path d="M.506 12.166L-.908 10.75l-1.414 1.415 1.414 1.414 1.414-1.414zM12.474.198l1.414-1.415-1.414-1.414-1.414 1.414L12.474.198zm7.98 31.915l1.413 1.414 1.415-1.414-1.415-1.415-1.414 1.415zM.506 52.059l-1.415-1.414-1.414 1.414 1.414 1.415 1.415-1.415zm11.968 11.968l-1.415 1.415 1.415 1.414 1.414-1.414-1.414-1.415zm31.914-31.914l1.415 1.414 1.414-1.414-1.414-1.415-1.415 1.415zM32.421 20.145l1.415-1.415-1.406-1.405-1.414 1.397 1.405 1.422zm0 0l-1.414 1.414 1.406 1.406 1.414-1.398-1.406-1.422zm-30.5-6.565L13.887 1.612 11.06-1.217-.908 10.751 1.92 13.58zm19.946 17.118L1.92 10.751-.908 13.58l19.947 19.947 2.828-2.829zM1.921 53.474l19.946-19.947-2.828-2.829L-.908 50.645l2.829 2.828zm11.968 9.14L1.92 50.644l-2.829 2.828L11.06 65.442l2.829-2.829zm29.086-31.916L11.06 62.613l2.829 2.829 31.915-31.915-2.829-2.829zm-11.968-9.14l11.968 11.969 2.829-2.829L33.836 18.73l-2.829 2.829zm2.82.01l-2.811-2.846 2.81 2.845zM11.06 1.611l19.947 19.947 2.828-2.829L13.888-1.216 11.06 1.612z" fill="#fff" mask="url(#bca)"/></symbol><symbol fill="none" viewBox="0 0 41 40" id="play-round" xmlns="http://www.w3.org/2000/svg"><rect x=".684" y=".364" width="39.273" height="39.273" rx="19.636" fill="#fff"/><path d="M27.497 19.5l-11.25 6.495v-12.99l11.25 6.495z" stroke="#000" stroke-width=".882" stroke-linejoin="round"/><rect x=".684" y=".364" width="39.273" height="39.273" rx="19.636" stroke="#000" stroke-width=".727"/></symbol><symbol id="plus" viewBox="0 0 15 15" xml:space="preserve" xmlns="http://www.w3.org/2000/svg"><style>.best0{fill:#fff}</style><path class="best0" d="M14.5 8.5h-6v6h-2v-6h-6v-2h6v-6h2v6h6v2z"/></symbol><symbol viewBox="0 0 21 22.68" id="product-save" xmlns="http://www.w3.org/2000/svg"><path d="M20.58 10a.41.41 0 00.42-.4V5.46a.31.31 0 000-.13l-2.1-4.17a2.1 2.1 0 00-.77-.85A2.19 2.19 0 0017 0H4a2.19 2.19 0 00-1.13.31 2.1 2.1 0 00-.77.85.42.42 0 000 .16.3.3 0 000 .16.39.39 0 00.21.24.44.44 0 00.32 0 .45.45 0 00.24-.21A1.28 1.28 0 013.32 1 1.24 1.24 0 014 .84h4.32L7.62 5H1.1l.61-1.23a.3.3 0 00.05-.16.3.3 0 000-.16.28.28 0 00-.08-.15.32.32 0 00-.13-.1.29.29 0 00-.16 0 .33.33 0 00-.17 0l-.14.08a.71.71 0 00-.1.14L.05 5.27a.3.3 0 000 .16v15.15a2.06 2.06 0 00.62 1.48 2.06 2.06 0 001.48.62H18.9a2.12 2.12 0 002.1-2.1V12.1a.4.4 0 00-.12-.29.41.41 0 00-.6 0 .4.4 0 00-.12.29v8.48a1.26 1.26 0 01-1.26 1.26H2.1a1.26 1.26 0 01-1.26-1.26V5.88h6.72v4.62a.41.41 0 00.05.19.44.44 0 00.12.15.45.45 0 00.18.07.44.44 0 00.2 0l2.44-.8 2.34.82H13a.41.41 0 00.24-.08.37.37 0 00.13-.15.41.41 0 000-.19V5.88h6.72V9.6a.41.41 0 00.42.42zM11.82.84l.7 4.2h-4l.7-4.2zm.78 9.07l-1.91-.65a.42.42 0 00-.27 0l-2 .66v-4h4.2zM13.38 5l-.7-4.2H17a1.24 1.24 0 01.66.19 1.28 1.28 0 01.47.51L19.9 5zm-2 13.86a.41.41 0 01-.42.42H3.78a.42.42 0 110-.84h7.14a.41.41 0 01.42.42zm2.1-3.36a.41.41 0 01-.48.5H3.78a.42.42 0 110-.84H13a.41.41 0 01.42.42z"/></symbol><symbol viewBox="0 0 21 18" id="reset" xmlns="http://www.w3.org/2000/svg"><path d="M12 0C7 0 3 4 3 9H0l3.9 3.9.1.1 4-4H5c0-3.9 3.1-7 7-7s7 3.1 7 7-3.1 7-7 7c-1.9 0-3.7-.8-4.9-2.1l-1.4 1.4C7.3 17 9.5 18 12 18c5 0 9-4 9-9s-4-9-9-9zm-1 5v5l4.3 2.5.7-1.2-3.5-2.1V5H11z"/></symbol><symbol viewBox="0 0 17 17.01" id="search" xmlns="http://www.w3.org/2000/svg"><path d="M12.47 11h-.79l-.28-.27a6.49 6.49 0 10-.7.7l.27.28v.79l4.24 4.23a1 1 0 101.48-1.48zm-6 0A4.49 4.49 0 1111 6.48 4.48 4.48 0 016.48 11z"/></symbol><symbol viewBox="0 0 179.8 217.6" id="shield" xmlns="http://www.w3.org/2000/svg"><path class="bist0" d="M89.3 219.1l-1-.5c-.2-.1-22.5-12.5-44.7-29.1-30-22.4-45.3-41.1-45.3-55.6V35.5l1.8-.2C.7 35.3 51.3 30 88 0l1.3-1 1.3 1c36.7 29.9 87.3 35.3 87.8 35.3l1.8.2v98.2c0 14.5-15.2 33.3-45.3 55.6-20.3 15.1-40.7 26.8-44.6 29l-1 .8zM.3 37.3v96.4c0 13.9 15 32.1 44.5 54 21.3 15.9 42.8 28 44.4 28.9l-.4-.2c-9-5.1-88.4-51.1-88.4-82.7L.3 37.3l.9-.1c.3 0 .7-.1 1.3-.2-1.3.3-2.1.3-2.2.3zm2.1 1.8v94.7c0 30.1 79.1 76.2 86.9 80.7 7.8-4.5 86.9-50.6 86.9-80.7V39.1c-8.4-1.1-53.4-8.3-86.9-34.9C55.8 30.8 10.7 38 2.4 39.1zm175.2 99.6c-3.5 14.9-21.6 32.1-40.6 46.7 24.1-18.4 37.7-34.1 40.6-46.7zm-.9-101.5c.2 0 .4.1.6.1l.9.1c-.1-.1-.6-.1-1.5-.2zM89.3 1.6c-2.9 2.3-5.8 4.5-8.8 6.6 2.8-1.9 5.5-3.9 8.2-6.1l.6-.5.1.1-.1-.1z"/></symbol><symbol viewBox="0 0 295.9 230.5" id="shields" xmlns="http://www.w3.org/2000/svg"><path class="bjst0" d="M153.9 173.8c-2.8 2.5-5.9 5.1-9.1 7.7 3.1-2.5 6.2-5.1 9.1-7.7-.5-.5-.8-1.1-1.1-1.8-23.9 21.4-57 40.7-61.9 43.5C83.2 211 4 164.9 4 134.8V40.1c8.4-1.1 53.4-8.3 86.9-34.9 33.5 26.6 78.5 33.8 86.9 34.9v36.3c1.3-.4 2.6-.6 4-.7V36.5l-1.8-.2c-.5 0-51.1-5.3-87.8-35.3l-1.3-1-1.3 1C53 31 2.3 36.3 1.8 36.4l-1.8.1v98.2c0 14.5 15.2 33.3 45.3 55.6 22.3 16.6 44.5 29 44.7 29.1l1 .5 1.1-.6c3.9-2.2 24.3-13.9 44.6-29 7.2-5.4 13.6-10.5 19.1-15.5-.8-.1-1.4-.5-1.9-1zM90.9 2.6l.1.1-.1-.1-.6.5c-2.4 1.9-4.9 3.8-7.4 5.5 2.7-1.9 5.4-3.9 8-6zM2 134.8V38.3c.1 0 .7-.1 1.9-.2-.4.1-.8.1-1 .1l-.9.2v96.4c0 19.5 30.3 44.5 55.6 62-3.7-2.5-7.4-5.2-11.2-8C17 166.8 2 148.7 2 134.8zm58.3 63.9c.6.4 1.1.7 1.6 1.1-.5-.4-1-.8-1.6-1.1zM66.7 202.9z"/><path class="bjst0" d="M70.6 205.4c.2.2.5.3.7.5-.3-.2-.5-.3-.7-.5zM74.5 207.9c.3.2.5.3.8.5-.2-.1-.5-.3-.8-.5zM86.5 215.2c1.8 1 3.1 1.8 3.9 2.2h.1c-.6-.2-2-1-4-2.2zM85.6 214.7c.3.2.6.3.8.5-.2-.2-.5-.3-.8-.5zM178.5 38.2c.2 0 .3 0 .4.1l.9.1c0-.1-.5-.1-1.3-.2z"/><g><path d="M221.9 229.4l-.4-.2c-.2-.1-18.3-10.2-36.2-23.5-24.1-18-36.4-33-36.4-44.5v-79l.7-.1c.4 0 41.9-4.5 71.7-28.8l.5-.4.5.4c29.8 24.3 71.3 28.8 71.7 28.8l.7.1v79c0 11.5-12.2 26.5-36.4 44.5-17.9 13.3-36 23.4-36.2 23.5l-.2.2zM150.6 83.6v77.5c0 25.3 65.6 63.1 71.3 66.4 5.7-3.3 71.3-41.1 71.3-66.4V83.6c-5.7-.7-43.4-6.2-71.3-28.7-27.9 22.5-65.6 28-71.3 28.7z"/><path class="bjst0" d="M222 230.5l-.9-.5c-.2-.1-18.3-10.2-36.3-23.6-24.4-18.2-36.8-33.4-36.8-45.3V81.2l1.6-.2c.4 0 41.9-4.7 71.2-28.6l1.1-.9 1.1.9C251.9 76 292.4 80.8 294.1 81l1.6.2v79.9c0 11.9-12.4 27.1-36.8 45.3-17.9 13.4-36.1 23.5-36.3 23.6l-.6.5zm-70.4-146v76.6c0 19.9 44 50.2 70.3 65.2 26.4-15 70.3-45.4 70.3-65.2V84.5c-8.8-1.2-43.6-7.1-70.3-28.3-26.7 21.2-61.5 27.1-70.3 28.3z"/></g></symbol><symbol viewBox="0 0 14 15" id="small-arrow-down" xmlns="http://www.w3.org/2000/svg"><path d="M.3 7.5l1.2-1.2L6.2 11V.8h1.7V11l4.6-4.7 1.2 1.2L7 14.2.3 7.5z"/></symbol><symbol fill="none" viewBox="0 0 13 13" id="star" xmlns="http://www.w3.org/2000/svg"><path d="M8.271 3.943l4.378.578L9.53 7.657l.805 4.353L6.4 10.004l-3.88 2.118.685-4.378L0 4.698l4.362-.699L6.259 0l2.012 3.943z" fill="#FC0"/></symbol><symbol viewBox="0 0 512 415.84" id="twitter" xmlns="http://www.w3.org/2000/svg"><path d="M459.37 103.63c.33 4.55.33 9.1.33 13.65 0 138.72-105.59 298.56-298.56 298.56A296.51 296.51 0 010 368.73 218 218 0 0025.34 370a210.15 210.15 0 00130.27-44.8 105.13 105.13 0 01-98.11-72.77 132.94 132.94 0 0019.82 1.62 111.09 111.09 0 0027.61-3.57 105 105 0 01-84.14-103v-1.3a105.68 105.68 0 0047.43 13.32A105.07 105.07 0 0135.74 19.17 298.27 298.27 0 00252.1 129a118.63 118.63 0 01-2.6-24 105 105 0 01181.6-71.86A206.58 206.58 0 00497.7 7.8a104.59 104.59 0 01-46.13 57.82A210.28 210.28 0 00512 49.38a225.4 225.4 0 01-52.63 54.25z"/></symbol><symbol viewBox="0 0 17 18.49" id="user" xmlns="http://www.w3.org/2000/svg"><path d="M8.5 8.48a4.24 4.24 0 10-4.24-4.24A4.24 4.24 0 008.5 8.48zM8.5 1a3.23 3.23 0 11-3.23 3.24A3.23 3.23 0 018.5 1zM8.5 9.48A8.51 8.51 0 000 18a.51.51 0 00.5.51h16A.51.51 0 0017 18a8.51 8.51 0 00-8.5-8.52zm-7.5 8a7.49 7.49 0 0114.94 0z"/></symbol><symbol viewBox="0 0 546.13 384" id="youtube" xmlns="http://www.w3.org/2000/svg"><path d="M534.72 60.08a68.6 68.6 0 00-48.28-48.59C443.85 0 273.07 0 273.07 0S102.29 0 59.7 11.49a68.61 68.61 0 00-48.29 48.59C0 103 0 192.39 0 192.39s0 89.44 11.41 132.3c6.28 23.65 24.79 41.5 48.29 47.82C102.29 384 273.07 384 273.07 384s170.78 0 213.37-11.49c23.49-6.32 42-24.17 48.28-47.82 11.41-42.86 11.41-132.3 11.41-132.3s0-89.39-11.41-132.31zM217.21 273.59V111.18L360 192.39l-142.74 81.2z"/></symbol></svg>